<?xml version="1.0" encoding="UTF-8"?>
<svg id="Layer_1" data-name="Layer 1" xmlns="http://www.w3.org/2000/svg" viewBox="0 0 98.6 19.21">
  <defs>
    <style>
      .cls-1 {
        fill: #2547c1;
      }

      .cls-2 {
        fill: #77c2ee;
      }
    </style>
  </defs>
  <path class="cls-1" d="M1,19.04l-1-1V1L1,0H7.83c1.24,0,2.35,.26,3.29,.77,.96,.52,1.72,1.26,2.26,2.21,.53,.93,.8,2.02,.8,3.25s-.27,2.31-.8,3.24c-.54,.94-1.3,1.69-2.27,2.2-.95,.51-2.05,.76-3.28,.76h-2.62v5.61l-1,1H1ZM7.91,7.34c.38,0,.56-.14,.67-.26,.18-.2,.27-.47,.27-.85s-.09-.68-.27-.88c-.11-.12-.29-.26-.68-.26h-2.7v2.24h2.7Z"/>
  <path class="cls-1" d="M19.55,19.21c-1.94,0-3.49-.57-4.59-1.69-1.1-1.12-1.66-2.67-1.66-4.61v-1.98c0-1.93,.56-3.47,1.66-4.57s2.65-1.66,4.59-1.66,3.48,.56,4.59,1.66,1.66,2.64,1.66,4.57v2.02c0,1.94-.56,3.48-1.66,4.59-1.1,1.11-2.65,1.67-4.59,1.67Zm-.01-9.42c-.48,0-.67,.14-.77,.25-.17,.18-.26,.48-.26,.89v2.02c0,.42,.09,.73,.26,.92,.1,.11,.29,.25,.76,.25,.54,0,.73-.19,.79-.26,.18-.19,.26-.49,.26-.91v-2.02c0-.41-.09-.71-.26-.89-.06-.06-.24-.25-.79-.25Z"/>
  <path class="cls-1" d="M31.13,19.1c-1.38,0-2.43-.4-3.11-1.17-.65-.74-.97-1.77-.97-3.05v-5.26h-.25l-1-1v-2.74l1-1h.25V2.34l1-1h3.21l1,1v2.54h.49l1,1v2.74l-1,1h-.49v4.39h.49l1,1v3.09l-1,1h-1.62Z"/>
  <path class="cls-1" d="M39.65,19.21c-1.61,0-2.88-.55-3.79-1.62-.86-1.03-1.3-2.44-1.3-4.21V5.88l1-1h3.21l1,1v7.39c0,.46,.15,.6,.2,.65,.14,.13,.37,.2,.7,.2s.55-.07,.67-.2c.13-.14,.2-.38,.2-.73V5.88l1-1h3.2l1,1v12.16l-1,1h-3.2l-.55-.55c-.65,.48-1.43,.72-2.35,.72Z"/>
  <path class="cls-1" d="M63.09,19.04l-1-1v-7.02c0-.46-.09-.79-.26-.99-.06-.07-.21-.24-.7-.24s-.62,.16-.68,.22c-.16,.18-.24,.49-.24,.91v7.11l-1,1h-3.21l-1-1v-7.02c0-.45-.09-.78-.27-.98-.1-.11-.28-.25-.75-.25s-.61,.15-.66,.2c-.13,.14-.2,.37-.2,.7v7.35l-1,1h-3.21l-1-1V5.88l1-1h3.21l.56,.56c.69-.49,1.51-.74,2.44-.74,1.5,0,2.71,.51,3.6,1.51,.26-.27,.53-.51,.84-.71,.78-.53,1.66-.8,2.6-.8,1.64,0,2.93,.6,3.85,1.77,.86,1.1,1.3,2.63,1.3,4.54v7.03l-1,1h-3.21Z"/>
  <path class="cls-2" d="M69.7,19.04l-1-1V1l1-1h5.64c2.39,0,4.28,.63,5.64,1.86,1.38,1.26,2.08,3.02,2.08,5.24v4.83c0,1.37-.29,2.61-.87,3.67-.6,1.09-1.49,1.95-2.67,2.56-1.13,.58-2.54,.88-4.19,.88h-5.62Zm5.71-5.09c.8,0,1.4-.17,1.79-.52,.23-.2,.53-.57,.53-1.4V7.01c0-.84-.3-1.21-.53-1.4-.39-.34-.99-.51-1.79-.51h-1.5V13.95h1.5Z"/>
  <path class="cls-2" d="M85.21,19.04l-1-1V1l1-1h6.95c1.9,0,3.42,.49,4.51,1.46,1.13,1,1.7,2.4,1.7,4.16,0,1.24-.38,2.29-1.13,3.13-.17,.19-.36,.37-.57,.53,.27,.2,.52,.42,.74,.67,.78,.89,1.18,2.04,1.18,3.42,0,1.8-.57,3.21-1.71,4.21-1.1,.97-2.62,1.46-4.53,1.46h-7.15Zm6.84-5.09c.48,0,.83-.1,1.04-.28,.11-.1,.27-.29,.27-.74,0-.5-.15-.69-.27-.79-.21-.19-.56-.28-1.04-.28h-2.63v2.1h2.63Zm0-7.2c.4,0,.69-.08,.86-.24,.1-.09,.22-.26,.22-.68,0-.36-.12-.46-.18-.51-.17-.14-.49-.22-.9-.22h-2.63v1.66h2.63Z"/>
</svg>